<svg width="35" height="35" viewBox="0 0 35 35" fill="none" xmlns="http://www.w3.org/2000/svg">
<path d="M27.3625 30.625H8.27154C7.99025 30.625 7.72048 30.5098 7.52158 30.3046C7.32268 30.0995 7.21094 29.8213 7.21094 29.5312V5.46875C7.21094 5.17867 7.32268 4.90047 7.52158 4.69535C7.72048 4.49023 7.99025 4.375 8.27154 4.375H20.9988L28.4231 12.0312V29.5312C28.4231 29.8213 28.3113 30.0995 28.1124 30.3046C27.9135 30.5098 27.6437 30.625 27.3625 30.625Z" stroke="#575252" stroke-width="2" stroke-linecap="round" stroke-linejoin="round"/>
<path d="M21 4.375V12.0312H28.4242" stroke="#575252" stroke-width="2" stroke-linecap="round" stroke-linejoin="round"/>
<path d="M19.9121 22.9414L22.0333 25.1289" stroke="#575252" stroke-width="2" stroke-linecap="round" stroke-linejoin="round"/>
<path d="M17.2863 24.0625C19.3365 24.0625 20.9985 22.3486 20.9985 20.2344C20.9985 18.1202 19.3365 16.4062 17.2863 16.4062C15.2362 16.4062 13.5742 18.1202 13.5742 20.2344C13.5742 22.3486 15.2362 24.0625 17.2863 24.0625Z" stroke="#575252" stroke-width="2" stroke-linecap="round" stroke-linejoin="round"/>
</svg>
