<?xml version="1.0" encoding="iso-8859-1"?>
<!-- Uploaded to: SVG Repo, www.svgrepo.com, Generator: SVG Repo Mixer Tools -->
<!DOCTYPE svg PUBLIC "-//W3C//DTD SVG 1.1//EN" "http://www.w3.org/Graphics/SVG/1.1/DTD/svg11.dtd">
<svg fill="#000000" version="1.1" id="Capa_1" xmlns="http://www.w3.org/2000/svg" xmlns:xlink="http://www.w3.org/1999/xlink" 
	 width="800px" height="800px" viewBox="0 0 95.437 95.438"
	 xml:space="preserve">
<g>
	<g>
		<path d="M69.351,0H26.087c-4.212,0-7.636,3.423-7.636,7.635v80.168c0,4.213,3.424,7.635,7.636,7.635h43.264
			c4.214,0,7.636-3.422,7.636-7.635V7.635C76.987,3.423,73.565,0,69.351,0z M40.72,6.973c0-1.044,0.84-1.884,1.884-1.884h10.23
			c1.045,0.001,1.885,0.84,1.885,1.884v0.051c0,1.043-0.84,1.883-1.885,1.883h-10.23c-1.044,0-1.884-0.84-1.884-1.883V6.973z
			 M47.719,92.574c-2.278,0-4.135-1.856-4.135-4.135c0-2.277,1.856-4.136,4.135-4.136s4.136,1.858,4.136,4.136
			C51.855,90.718,49.998,92.574,47.719,92.574z M70.625,80.168c0,0.699-0.572,1.271-1.273,1.271H26.087
			c-0.699,0-1.272-0.572-1.272-1.271V15.27c0-0.699,0.573-1.272,1.272-1.272h43.264c0.701,0,1.273,0.573,1.273,1.272V80.168z"/>
		<path d="M48.992,33.149v15.207c0,1.407-1.138,2.545-2.545,2.545H31.241c0.676,8.865,8.325,15.782,17.483,15.24
			c8.244-0.486,15.021-7.263,15.509-15.508C64.774,41.474,57.858,33.825,48.992,33.149z"/>
		<path d="M46.447,47.083V33.149c-8.119,0.621-14.585,7.088-15.206,15.207h13.934C45.877,48.354,46.447,47.785,46.447,47.083z"/>
	</g>
</g>
</svg>