<?xml version="1.0" standalone="no"?>
<!DOCTYPE svg PUBLIC "-//W3C//DTD SVG 20010904//EN"
 "http://www.w3.org/TR/2001/REC-SVG-20010904/DTD/svg10.dtd">
<svg version="1.0" xmlns="http://www.w3.org/2000/svg"
 width="50.000000pt" height="50.000000pt" viewBox="0 0 50.000000 50.000000"
 preserveAspectRatio="xMidYMid meet">

<g transform="translate(0.000000,50.000000) scale(0.100000,-0.100000)"
fill="#000000" stroke="none">
<path d="M170 435 l0 -45 80 0 80 0 0 45 0 45 -80 0 -80 0 0 -45z"/>
<path d="M64 447 c-2 -7 -3 -105 -2 -217 l3 -205 185 0 185 0 0 215 0 215 -42
3 c-40 3 -43 1 -43 -22 0 -19 5 -26 20 -26 19 0 20 -7 20 -170 l0 -170 -140 0
-140 0 0 170 c0 163 1 170 20 170 15 0 20 7 20 25 0 23 -4 25 -40 25 -24 0
-43 -5 -46 -13z"/>
<path d="M286 260 c-25 -38 -48 -70 -51 -70 -2 0 -20 14 -40 31 -20 18 -39 28
-43 25 -6 -7 75 -85 88 -86 5 0 102 144 108 161 2 5 -1 9 -6 9 -5 0 -30 -31
-56 -70z"/>
</g>
</svg>
