<?xml version="1.0" standalone="no"?>
<!DOCTYPE svg PUBLIC "-//W3C//DTD SVG 20010904//EN"
 "http://www.w3.org/TR/2001/REC-SVG-20010904/DTD/svg10.dtd">
<svg version="1.0" xmlns="http://www.w3.org/2000/svg"
 width="100.000000pt" height="100.000000pt" viewBox="0 0 100.000000 100.000000"
 preserveAspectRatio="xMidYMid meet">

<g transform="translate(0.000000,100.000000) scale(0.100000,-0.100000)"
fill="#000000" stroke="none">
<path d="M381 944 c-116 -31 -232 -126 -290 -238 -36 -67 -38 -86 -12 -86 12
0 24 14 35 43 9 23 25 53 35 66 l18 24 54 -21 54 -20 -2 -46 c-3 -39 0 -46 16
-46 15 0 21 10 26 41 5 26 11 39 19 36 7 -3 43 -8 79 -12 65 -7 67 -8 67 -36
0 -22 5 -29 20 -29 15 0 20 7 20 29 0 28 2 29 67 36 36 4 72 9 79 12 8 3 14
-10 19 -36 5 -31 11 -41 26 -41 16 0 19 7 16 46 l-2 46 54 20 54 21 18 -24
c10 -13 26 -43 35 -66 11 -29 23 -43 35 -43 25 0 24 11 -8 78 -33 70 -119 163
-188 202 -100 57 -232 74 -344 44z m95 -222 c-3 -3 -34 -1 -68 4 -59 8 -63 11
-60 33 4 37 61 121 96 142 l31 19 3 -96 c1 -53 0 -99 -2 -102z m131 125 c38
-56 56 -98 46 -108 -4 -4 -36 -11 -70 -15 l-63 -7 0 102 0 102 30 -16 c16 -8
42 -34 57 -58z m-256 12 c-17 -22 -35 -56 -41 -75 -6 -19 -16 -34 -21 -34 -18
0 -89 33 -89 41 0 19 142 108 173 109 4 0 -6 -18 -22 -41z m339 16 c40 -21
110 -74 110 -84 0 -8 -71 -41 -89 -41 -5 0 -15 15 -21 34 -6 19 -25 53 -41 76
-29 40 -30 42 -7 35 13 -4 34 -13 48 -20z"/>
<path d="M62 568 c3 -7 15 -43 27 -80 20 -59 26 -68 46 -68 20 0 27 9 41 55
10 30 21 52 25 49 4 -2 15 -27 24 -54 14 -41 21 -50 40 -50 19 0 26 9 40 53 9
28 20 64 25 80 8 24 6 27 -14 27 -18 0 -24 -9 -35 -50 -7 -28 -16 -48 -21 -45
-4 2 -13 25 -20 50 -11 39 -16 45 -39 45 -23 0 -29 -7 -46 -52 l-19 -53 -15
53 c-13 44 -19 52 -39 52 -15 0 -22 -5 -20 -12z"/>
<path d="M365 568 c44 -143 46 -148 70 -148 20 0 27 9 41 55 10 30 21 55 24
55 3 0 14 -25 24 -55 14 -46 21 -55 41 -55 24 0 26 5 70 148 3 7 -5 12 -18 12
-19 0 -25 -8 -36 -50 -7 -28 -16 -48 -21 -45 -4 2 -13 25 -20 50 -11 39 -16
45 -40 45 -24 0 -29 -6 -40 -45 -7 -25 -16 -48 -20 -50 -5 -3 -14 17 -21 45
-11 42 -17 50 -36 50 -13 0 -21 -5 -18 -12z"/>
<path d="M662 568 c3 -7 15 -43 27 -80 20 -59 26 -68 46 -68 20 0 27 9 41 55
10 30 21 55 24 55 3 0 14 -25 24 -55 14 -46 21 -55 41 -55 20 0 26 9 46 68 12
37 24 73 27 80 3 10 -2 13 -18 10 -18 -2 -27 -15 -41 -53 l-17 -50 -11 28 c-6
15 -14 39 -17 52 -5 19 -13 25 -33 25 -23 0 -29 -7 -46 -52 l-19 -53 -15 53
c-13 44 -19 52 -39 52 -15 0 -22 -5 -20 -12z"/>
<path d="M60 369 c0 -31 61 -132 112 -185 183 -192 473 -192 656 0 51 53 112
154 112 185 0 6 -8 11 -19 11 -12 0 -24 -14 -35 -42 -9 -24 -25 -54 -35 -67
l-18 -24 -54 21 -54 20 2 46 c3 39 0 46 -16 46 -15 0 -21 -10 -26 -41 -5 -26
-11 -39 -19 -36 -7 3 -43 8 -79 12 -65 7 -67 8 -67 36 0 22 -5 29 -20 29 -15
0 -20 -7 -20 -29 0 -28 -2 -29 -67 -36 -36 -4 -72 -9 -79 -12 -8 -3 -14 10
-19 36 -5 31 -11 41 -26 41 -16 0 -19 -7 -16 -46 l2 -46 -54 -20 -54 -21 -18
24 c-10 13 -26 43 -35 67 -11 28 -23 42 -35 42 -11 0 -19 -5 -19 -11z m420
-189 l0 -101 -30 16 c-44 23 -122 148 -103 166 9 8 48 15 101 18 l32 1 0 -100z
m173 81 c19 -19 -59 -143 -103 -166 l-30 -16 0 102 0 102 63 -7 c34 -4 66 -11
70 -15z m-343 -45 c6 -19 25 -53 41 -76 29 -40 30 -42 7 -35 -51 16 -158 86
-158 104 0 9 65 40 87 40 6 1 17 -14 23 -33z m450 18 c22 -9 40 -20 40 -25 0
-18 -107 -88 -158 -104 -23 -7 -22 -5 7 35 16 23 35 57 41 76 13 39 16 40 70
18z"/>
</g>
</svg>
