<?xml version="1.0" standalone="no"?>
<!DOCTYPE svg PUBLIC "-//W3C//DTD SVG 20010904//EN"
 "http://www.w3.org/TR/2001/REC-SVG-20010904/DTD/svg10.dtd">
<svg version="1.0" xmlns="http://www.w3.org/2000/svg"
 width="64.000000pt" height="64.000000pt" viewBox="0 0 64.000000 64.000000"
 preserveAspectRatio="xMidYMid meet">

<g transform="translate(0.000000,64.000000) scale(0.100000,-0.100000)"
fill="#000000" stroke="none">
<path d="M267 592 c-37 -38 -47 -62 -25 -62 6 0 22 10 35 22 l23 21 0 -44 c0
-54 15 -82 30 -59 5 8 10 35 10 59 l0 44 23 -21 c26 -25 47 -29 47 -9 0 18
-72 87 -91 87 -8 0 -32 -17 -52 -38z"/>
<path d="M33 402 c-24 -15 -33 -67 -33 -191 0 -150 9 -185 52 -200 41 -15 495
-15 536 0 43 15 52 50 52 200 0 124 -9 176 -33 191 -16 10 -558 10 -574 0z
m565 -187 c2 -142 1 -161 -15 -172 -22 -16 -494 -18 -524 -3 -18 10 -19 23
-19 169 0 87 3 161 7 164 4 4 128 6 277 5 l271 -3 3 -160z"/>
<path d="M271 296 c-87 -48 -50 -186 49 -186 51 0 100 49 100 99 0 75 -83 124
-149 87z"/>
</g>
</svg>
