<?xml version="1.0" encoding="iso-8859-1"?>
<!-- Uploaded to: SVG Repo, www.svgrepo.com, Generator: SVG Repo Mixer Tools -->
<!DOCTYPE svg PUBLIC "-//W3C//DTD SVG 1.1//EN" "http://www.w3.org/Graphics/SVG/1.1/DTD/svg11.dtd">
<svg fill="#000000" height="800px" width="800px" version="1.1" id="Capa_1" xmlns="http://www.w3.org/2000/svg" xmlns:xlink="http://www.w3.org/1999/xlink" 
	 viewBox="0 0 492.993 492.993" xml:space="preserve">
<path d="M466.808,122.933h-73.739c30.946-2.765,55.29-28.825,55.29-60.479c0-33.489-27.245-60.734-60.733-60.734
	c-33.489,0-60.734,27.245-60.734,60.734c0,31.653,24.343,57.714,55.289,60.478l-174.838-0.001c-14.478,0-26.258,11.779-26.26,26.26
	v20.154h-42.457v-20h26c7.18,0,13-5.82,13-13v-47c0-7.18-5.82-13-13-13h-78c-7.18,0-13,5.82-13,13v47c0,7.18,5.82,13,13,13h26v20H52
	c-7.18,0-13,5.82-13,13v35H13c-7.18,0-13,5.82-13,13v47c0,7.18,5.82,13,13,13h78c7.18,0,13-5.82,13-13v-47c0-7.18-5.82-13-13-13H65
	v-22h130.399c0.034,0.018,0.067,0.037,0.101,0.055v21.945h-26c-7.18,0-13,5.82-13,13v47c0,7.18,5.82,13,13,13h78
	c7.18,0,13-5.82,13-13v-47c0-7.18-5.82-13-13-13h-26v-16.336c26.85,4.105,68.355,10.529,87.992,13.572V456.55
	c0,19.146,15.577,34.723,34.723,34.723h7.604c17.92,0,32.157-13.607,34.62-33.092c0.325-2.571,0.722-5.624,1.175-9.044
	c0.465,3.471,0.872,6.543,1.202,9.085c2.523,19.46,16.757,33.051,34.614,33.051h7.604c19.146,0,34.724-15.576,34.724-34.723V300.502
	h1.056c14.436,0,26.182-11.746,26.182-26.184V149.114C492.989,134.678,481.243,122.933,466.808,122.933z M352.891,62.455
	c0-19.152,15.582-34.734,34.734-34.734c19.152,0,34.733,15.582,34.733,34.734c0,19.152-15.582,34.734-34.733,34.734
	C368.472,97.189,352.891,81.607,352.891,62.455z M99.625,102.345h52v21h-52V102.345z M78,264.345H26v-21h52V264.345z M234.5,264.345
	h-52v-21h52V264.345z M466.993,274.318c0,0.102-0.082,0.184-0.186,0.184h-14.052c-7.18,0-13,5.82-13,13V456.55
	c0,4.809-3.914,8.723-8.724,8.723h-7.604c-5.906,0-8.329-6.534-8.83-10.395c-3.26-25.133-13.993-101.622-14.102-102.392
	c-0.9-6.416-6.387-11.19-12.865-11.193c-0.003,0-0.005,0-0.008,0c-6.475,0-11.963,4.766-12.872,11.177
	c-0.107,0.76-10.804,76.306-14.109,102.449c-0.486,3.846-2.892,10.354-8.825,10.354h-7.604c-4.81,0-8.723-3.913-8.723-8.723V203.442
	c0-6.41-4.672-11.863-11.006-12.847c-0.866-0.134-86.96-13.494-115.212-17.742c-1.135-0.171-1.852-0.525-2.192-0.75v-22.91
	c0-0.145,0.117-0.262,0.26-0.262l156.342,0.001l10.163,12.734l-12.783,76.007c-0.647,3.843,0.465,7.773,3.029,10.708l13.74,15.73
	c2.469,2.826,6.038,4.448,9.791,4.448c3.753,0,7.322-1.622,9.791-4.447l13.74-15.73c2.564-2.936,3.676-6.865,3.029-10.709
	l-12.783-76.007l10.164-12.734h55.242c0.103,0,0.186,0.084,0.186,0.185V274.318z"/>
</svg>