<?xml version="1.0" standalone="no"?>
<!DOCTYPE svg PUBLIC "-//W3C//DTD SVG 20010904//EN"
 "http://www.w3.org/TR/2001/REC-SVG-20010904/DTD/svg10.dtd">
<svg version="1.0" xmlns="http://www.w3.org/2000/svg"
 width="376.000000pt" height="375.000000pt" viewBox="0 0 376.000000 375.000000"
 preserveAspectRatio="xMidYMid meet">

<g transform="translate(0.000000,375.000000) scale(0.100000,-0.100000)"
fill="#000000" stroke="none">
<path d="M1140 3735 c-571 -91 -1017 -528 -1114 -1094 -21 -122 -21 -330 0
-452 71 -412 338 -774 710 -964 303 -155 679 -186 1003 -83 125 39 263 107
359 175 42 31 81 57 87 59 6 3 45 -31 88 -74 76 -76 78 -79 66 -108 -17 -42
-14 -161 5 -213 9 -24 28 -60 43 -81 16 -20 213 -220 440 -443 465 -460 452
-450 593 -451 110 -1 167 24 243 102 69 74 92 132 92 237 0 137 5 131 -482
616 -400 399 -432 428 -486 448 -63 23 -159 28 -217 11 -34 -10 -36 -9 -112
67 -43 43 -78 80 -78 83 0 3 22 36 49 73 66 90 144 245 181 356 48 148 63 249
63 416 0 166 -15 268 -63 414 -202 619 -831 1007 -1470 906z m420 -262 c424
-84 770 -441 845 -872 29 -166 14 -372 -38 -526 -186 -544 -745 -846 -1302
-705 -102 26 -280 113 -370 181 -460 347 -570 984 -252 1461 109 163 248 284
432 374 217 105 447 135 685 87z m1539 -2697 c395 -395 405 -406 404 -443 -1
-47 -39 -83 -86 -83 -28 0 -73 41 -434 403 -389 388 -403 404 -403 440 0 49
36 87 82 87 30 0 69 -37 437 -404z"/>
<path d="M1305 2948 c-43 -23 -45 -33 -45 -244 l0 -203 -211 -3 c-208 -3 -211
-3 -230 -27 -24 -30 -24 -82 0 -112 19 -24 22 -24 230 -27 l211 -3 0 -205 c0
-190 1 -205 20 -224 28 -28 69 -36 99 -19 46 26 51 50 51 257 l0 192 199 0
c194 0 201 1 226 23 38 32 38 92 0 124 -25 22 -32 23 -225 23 l-199 0 -3 206
-3 206 -28 24 c-30 26 -60 30 -92 12z"/>
</g>
</svg>
