<svg width="27" height="26" viewBox="0 0 27 26" fill="none" xmlns="http://www.w3.org/2000/svg">
<path d="M10.125 12.96H16.875" stroke="#575252" stroke-width="2" stroke-linecap="round" stroke-linejoin="round"/>
<path d="M10.125 16.2002H16.875" stroke="#575252" stroke-width="2" stroke-linecap="round" stroke-linejoin="round"/>
<path d="M5.90625 4.0498H21.0938C21.3175 4.0498 21.5321 4.13514 21.6904 4.28705C21.8486 4.43895 21.9375 4.64498 21.9375 4.8598V20.2498C21.9375 20.8943 21.6708 21.5124 21.1961 21.9681C20.7214 22.4238 20.0776 22.6798 19.4062 22.6798H7.59375C6.92242 22.6798 6.27859 22.4238 5.80389 21.9681C5.32918 21.5124 5.0625 20.8943 5.0625 20.2498V4.8598C5.0625 4.64498 5.15139 4.43895 5.30963 4.28705C5.46786 4.13514 5.68247 4.0498 5.90625 4.0498V4.0498Z" stroke="#575252" stroke-width="2" stroke-linecap="round" stroke-linejoin="round"/>
<path d="M8.4375 2.43018V5.67018" stroke="#575252" stroke-width="2" stroke-linecap="round" stroke-linejoin="round"/>
<path d="M13.5 2.43018V5.67018" stroke="#575252" stroke-width="2" stroke-linecap="round" stroke-linejoin="round"/>
<path d="M18.5625 2.43018V5.67018" stroke="#575252" stroke-width="2" stroke-linecap="round" stroke-linejoin="round"/>
</svg>
