<svg width="26" height="25" viewBox="0 0 26 25" fill="none" xmlns="http://www.w3.org/2000/svg">
<path d="M1.49083 1.48816L1.49114 1.48787C1.67883 1.30733 1.75542 1.24775 1.82385 1.2095C1.87927 1.17853 1.97987 1.13399 2.2297 1.09605C2.79198 1.01068 3.76576 1 5.85 1C7.93424 1 8.90802 1.01068 9.47029 1.09605C9.72013 1.13399 9.82073 1.17853 9.87615 1.2095C9.94458 1.24775 10.0212 1.30733 10.2089 1.48787L10.2092 1.48816C10.4129 1.68396 10.4571 1.73943 10.4873 1.79287C10.5115 1.83573 10.562 1.94284 10.6038 2.26325C10.6944 2.95636 10.7 4.20534 10.7 6.875C10.7 9.54466 10.6944 10.7936 10.6038 11.4868C10.562 11.8072 10.5115 11.9143 10.4873 11.9571C10.4571 12.0106 10.4129 12.066 10.2092 12.2618L10.2089 12.2621C10.0212 12.4427 9.94458 12.5023 9.87615 12.5405C9.82073 12.5715 9.72013 12.616 9.47029 12.6539C8.90802 12.7393 7.93424 12.75 5.85 12.75C3.76576 12.75 2.79198 12.7393 2.2297 12.6539C1.97987 12.616 1.87927 12.5715 1.82385 12.5405C1.75542 12.5023 1.67883 12.4427 1.49114 12.2621L1.49083 12.2618C1.28712 12.066 1.24291 12.0106 1.21272 11.9571C1.1885 11.9143 1.13804 11.8072 1.09618 11.4868C1.00564 10.7936 1 9.54466 1 6.875C1 4.20534 1.00564 2.95636 1.09618 2.26325C1.13804 1.94284 1.1885 1.83573 1.21272 1.79287C1.24291 1.73943 1.28712 1.68396 1.49083 1.48816ZM15.7908 1.48817L15.7911 1.48787C15.9788 1.30733 16.0554 1.24775 16.1239 1.2095C16.1793 1.17853 16.2799 1.13399 16.5297 1.09605C17.092 1.01068 18.0658 1 20.15 1C22.2342 1 23.208 1.01068 23.7703 1.09605C24.0201 1.13399 24.1207 1.17853 24.1761 1.2095C24.2446 1.24775 24.3212 1.30732 24.5089 1.48787L24.5092 1.48817C24.6777 1.65015 24.7512 1.73678 24.796 1.80576C24.8313 1.86012 24.8666 1.93096 24.8985 2.07532C24.9778 2.43391 25 3.03463 25 4.375C25 5.71537 24.9778 6.31609 24.8985 6.67468C24.8666 6.81904 24.8313 6.88988 24.796 6.94424C24.7512 7.01322 24.6777 7.09985 24.5092 7.26183L24.5089 7.26213C24.3212 7.44267 24.2446 7.50225 24.1761 7.5405C24.1207 7.57147 24.0201 7.61601 23.7703 7.65395C23.208 7.73932 22.2342 7.75 20.15 7.75C18.0658 7.75 17.092 7.73932 16.5297 7.65395C16.2799 7.61601 16.1793 7.57147 16.1239 7.5405C16.0554 7.50225 15.9788 7.44267 15.7911 7.26213L15.7908 7.26183C15.6223 7.09985 15.5488 7.01322 15.504 6.94424C15.4687 6.88988 15.4334 6.81904 15.4015 6.67468C15.3222 6.31609 15.3 5.71537 15.3 4.375C15.3 3.03463 15.3222 2.43391 15.4015 2.07532C15.4334 1.93096 15.4687 1.86012 15.504 1.80576C15.5488 1.73678 15.6223 1.65015 15.7908 1.48817ZM15.7908 12.7382L15.7911 12.7379C15.9788 12.5573 16.0554 12.4977 16.1239 12.4595C16.1793 12.4285 16.2799 12.384 16.5297 12.3461C17.092 12.2607 18.0658 12.25 20.15 12.25C22.2342 12.25 23.208 12.2607 23.7703 12.3461C24.0201 12.384 24.1207 12.4285 24.1761 12.4595C24.2446 12.4977 24.3212 12.5573 24.5089 12.7379L24.5092 12.7382C24.7129 12.934 24.7571 12.9894 24.7873 13.0429C24.8115 13.0857 24.862 13.1928 24.9038 13.5132C24.9944 14.2064 25 15.4553 25 18.125C25 20.7947 24.9944 22.0436 24.9038 22.7368C24.862 23.0572 24.8115 23.1643 24.7873 23.2071C24.7571 23.2606 24.7129 23.316 24.5092 23.5118L24.5089 23.5121C24.3212 23.6927 24.2446 23.7523 24.1761 23.7905C24.1207 23.8215 24.0201 23.866 23.7703 23.9039C23.208 23.9893 22.2342 24 20.15 24C18.0658 24 17.092 23.9893 16.5297 23.9039C16.2799 23.866 16.1793 23.8215 16.1239 23.7905C16.0554 23.7523 15.9788 23.6927 15.7911 23.5121L15.7908 23.5118C15.5871 23.316 15.5429 23.2606 15.5127 23.2071C15.4885 23.1643 15.438 23.0572 15.3962 22.7368C15.3056 22.0436 15.3 20.7947 15.3 18.125C15.3 15.4553 15.3056 14.2064 15.3962 13.5132C15.438 13.1928 15.4885 13.0857 15.5127 13.0429C15.5429 12.9894 15.5871 12.934 15.7908 12.7382ZM1.49082 17.7382L1.49114 17.7379C1.67883 17.5573 1.75542 17.4977 1.82385 17.4595C1.87927 17.4285 1.97987 17.384 2.22971 17.3461C2.79198 17.2607 3.76576 17.25 5.85 17.25C7.93424 17.25 8.90802 17.2607 9.47029 17.3461C9.72013 17.384 9.82073 17.4285 9.87615 17.4595C9.94458 17.4977 10.0212 17.5573 10.2089 17.7379L10.2092 17.7382C10.3777 17.9002 10.4512 17.9868 10.496 18.0558C10.5313 18.1101 10.5666 18.181 10.5985 18.3253C10.6778 18.6839 10.7 19.2846 10.7 20.625C10.7 21.9654 10.6778 22.5661 10.5985 22.9247C10.5666 23.069 10.5313 23.1399 10.496 23.1942C10.4512 23.2632 10.3777 23.3498 10.2092 23.5118L10.2089 23.5121C10.0212 23.6927 9.94458 23.7523 9.87615 23.7905C9.82073 23.8215 9.72013 23.866 9.47029 23.9039C8.90802 23.9893 7.93424 24 5.85 24C3.76576 24 2.79198 23.9893 2.22971 23.9039C1.97987 23.866 1.87927 23.8215 1.82385 23.7905C1.75542 23.7523 1.67883 23.6927 1.49114 23.5121L1.49082 23.5118C1.32229 23.3498 1.24875 23.2632 1.204 23.1942C1.16872 23.1399 1.13342 23.069 1.1015 22.9247C1.02221 22.5661 1 21.9654 1 20.625C1 19.2846 1.02221 18.6839 1.1015 18.3253C1.13342 18.181 1.16872 18.1101 1.204 18.0558C1.24875 17.9868 1.32229 17.9002 1.49082 17.7382Z" stroke="#737478" stroke-width="2"/>
</svg>
