<?xml version="1.0" standalone="no"?>
<!DOCTYPE svg PUBLIC "-//W3C//DTD SVG 20010904//EN"
 "http://www.w3.org/TR/2001/REC-SVG-20010904/DTD/svg10.dtd">
<svg version="1.0" xmlns="http://www.w3.org/2000/svg"
 width="980.000000pt" height="980.000000pt" viewBox="0 0 980.000000 980.000000"
 preserveAspectRatio="xMidYMid meet">

<g transform="translate(0.000000,980.000000) scale(0.100000,-0.100000)"
fill="#000000" stroke="none">
<path d="M4640 9793 c-381 -26 -614 -62 -940 -143 -590 -147 -1173 -420 -1675
-785 -406 -296 -815 -706 -1103 -1108 -728 -1016 -1039 -2244 -881 -3482 118
-922 488 -1770 1094 -2507 140 -170 461 -491 633 -633 1073 -885 2424 -1273
3787 -1090 1037 140 1999 607 2750 1337 299 290 537 585 767 951 101 161 313
582 384 762 615 1567 393 3326 -591 4680 -284 390 -665 775 -1050 1060 -857
636 -1885 972 -2940 963 -104 -1 -210 -3 -235 -5z m587 -794 c1143 -94 2175
-645 2892 -1544 485 -608 785 -1341 873 -2130 17 -160 17 -690 0 -850 -141
-1274 -843 -2394 -1922 -3067 -890 -554 -1963 -747 -2993 -537 -1048 213
-1982 839 -2584 1730 -380 563 -609 1190 -685 1874 -17 160 -17 690 0 850 154
1393 971 2586 2212 3232 462 240 1002 396 1535 442 146 12 524 13 672 0z"/>
<path d="M4620 7663 c-217 -16 -510 -80 -705 -153 -163 -61 -414 -187 -553
-279 l-124 -81 54 -103 c30 -56 139 -265 243 -464 l188 -362 106 72 c208 141
477 257 701 303 104 21 324 24 426 6 217 -40 319 -175 319 -422 0 -77 -5 -121
-20 -164 -39 -120 -148 -252 -375 -453 -224 -199 -402 -381 -479 -488 -121
-171 -237 -444 -276 -646 -27 -144 -36 -326 -25 -497 6 -87 13 -169 16 -184
l6 -28 524 0 524 0 0 103 c0 255 41 404 163 590 103 157 234 287 498 494 114
89 276 250 353 351 150 197 259 448 303 702 25 141 25 524 0 640 -57 266 -166
471 -347 650 -229 228 -548 365 -955 410 -82 9 -458 11 -565 3z"/>
<path d="M4533 3379 c-154 -24 -279 -86 -388 -194 -113 -113 -172 -250 -182
-427 -20 -345 154 -607 472 -708 99 -32 299 -39 416 -15 323 65 522 293 545
625 14 201 -56 402 -186 530 -79 78 -192 141 -307 171 -91 24 -276 33 -370 18z"/>
</g>
</svg>
