<?xml version="1.0" encoding="UTF-8"?>
<svg width="700pt" height="700pt" version="1.1" viewBox="0 0 700 700" xmlns="http://www.w3.org/2000/svg">
 <path d="m573.32 166.51-33-33c-4.5547-4.5547-10.527-6.8359-16.5-6.8359-5.0391 0-9.0117 2.1289-10.496 2.8477l0.003906-36.188c0-25.773-20.895-46.668-46.668-46.668l-210 0.003907-116.67 116.66v303.33c0 25.773 20.895 46.668 46.668 46.668h280c25.773 0 46.668-20.895 46.668-46.668v-207.17l59.992-59.992c9.1094-9.1094 9.1094-23.883-0.003906-32.996zm-83.324 300.16c0 12.867-10.469 23.332-23.332 23.332h-280c-12.867 0-23.332-10.469-23.332-23.332l-0.003907-280h116.67v-116.67h186.67c12.867 0 23.332 10.469 23.332 23.332v57.504l-230.16 230.16v65.996h65.996l164.16-164.16zm17.328-234.16-191.15 191.16h-33v-33l191.16-191.16zm16.5-16.5-33-33 33-32.996 32.996 33z"/>
</svg>
