<?xml version="1.0" standalone="no"?>
<!DOCTYPE svg PUBLIC "-//W3C//DTD SVG 20010904//EN"
 "http://www.w3.org/TR/2001/REC-SVG-20010904/DTD/svg10.dtd">
<svg version="1.0" xmlns="http://www.w3.org/2000/svg"
 width="256.000000pt" height="256.000000pt" viewBox="0 0 256.000000 256.000000"
 preserveAspectRatio="xMidYMid meet">

<g transform="translate(0.000000,256.000000) scale(0.100000,-0.100000)"
fill="#000000" stroke="none">
<path d="M492 2468 c-17 -17 -17 -2359 0 -2376 16 -16 80 -16 96 0 7 7 12 23
12 35 0 34 43 73 80 73 37 0 80 -39 80 -73 0 -40 18 -47 120 -47 102 0 120 7
120 47 0 34 43 73 80 73 37 0 80 -39 80 -73 0 -40 18 -47 120 -47 102 0 120 7
120 47 0 34 43 73 80 73 37 0 80 -39 80 -73 0 -40 18 -47 120 -47 102 0 120 7
120 47 0 34 43 73 80 73 37 0 80 -39 80 -73 0 -12 5 -28 12 -35 16 -16 80 -16
96 0 17 17 17 2359 0 2376 -7 7 -28 12 -48 12 -42 0 -60 -14 -60 -47 0 -34
-43 -73 -80 -73 -37 0 -80 39 -80 73 0 40 -18 47 -120 47 -102 0 -120 -7 -120
-47 0 -34 -43 -73 -80 -73 -37 0 -80 39 -80 73 0 40 -18 47 -120 47 -102 0
-120 -7 -120 -47 0 -34 -43 -73 -80 -73 -37 0 -80 39 -80 73 0 40 -18 47 -120
47 -102 0 -120 -7 -120 -47 0 -34 -43 -73 -80 -73 -37 0 -80 39 -80 73 0 33
-18 47 -60 47 -20 0 -41 -5 -48 -12z m453 -105 c23 -44 86 -83 133 -83 63 0
132 43 153 98 7 18 16 22 53 22 39 0 45 -3 56 -31 26 -61 102 -98 175 -85 40
8 102 58 116 93 7 19 16 23 52 23 39 0 46 -4 68 -37 39 -59 72 -78 137 -78 44
0 65 5 90 23 l32 23 0 -105 0 -106 -45 0 -45 0 0 -40 0 -40 40 0 40 0 0 -760
0 -760 -40 0 -40 0 0 -40 0 -40 40 0 40 0 0 -106 0 -105 -30 21 c-39 28 -97
36 -143 21 -38 -13 -97 -71 -97 -96 0 -11 -12 -15 -47 -15 -45 0 -49 2 -68 37
-23 44 -86 83 -133 83 -63 0 -132 -43 -153 -97 -7 -19 -16 -23 -51 -23 -39 0
-45 3 -63 37 -35 66 -122 99 -192 72 -35 -13 -82 -57 -94 -87 -7 -18 -16 -22
-52 -22 -39 0 -46 4 -68 37 -39 59 -72 78 -137 78 -44 0 -65 -5 -89 -23 l-33
-23 0 105 0 106 40 0 40 0 0 40 0 40 -40 0 -40 0 0 760 0 760 40 0 40 0 0 40
0 40 -40 0 -40 0 0 105 0 104 46 -24 c53 -28 99 -32 147 -11 36 14 87 69 87
92 0 10 13 14 48 14 44 0 48 -2 67 -37z"/>
<path d="M720 2080 l0 -40 80 0 80 0 0 40 0 40 -80 0 -80 0 0 -40z"/>
<path d="M960 2080 l0 -40 80 0 80 0 0 40 0 40 -80 0 -80 0 0 -40z"/>
<path d="M1200 2080 l0 -40 80 0 80 0 0 40 0 40 -80 0 -80 0 0 -40z"/>
<path d="M1440 2080 l0 -40 80 0 80 0 0 40 0 40 -80 0 -80 0 0 -40z"/>
<path d="M1680 2080 l0 -40 80 0 80 0 0 40 0 40 -80 0 -80 0 0 -40z"/>
<path d="M1132 1988 c-7 -7 -12 -40 -12 -78 l0 -67 -107 -22 c-60 -13 -114
-27 -120 -33 -9 -7 -13 -48 -13 -137 0 -115 -2 -127 -20 -139 -19 -11 -20 -23
-20 -209 0 -160 3 -199 15 -213 13 -15 13 -26 -2 -100 l-16 -83 22 -19 c13
-10 31 -18 42 -18 10 0 20 -3 22 -7 3 -5 -31 -51 -74 -103 l-79 -94 27 -28
c24 -25 28 -26 43 -13 14 13 78 15 434 15 281 0 424 -4 438 -11 16 -9 24 -7
44 12 13 12 24 26 24 30 0 4 -34 48 -75 97 -41 49 -75 92 -75 94 0 3 18 10 39
17 21 6 42 18 45 26 3 9 -2 49 -10 91 -14 69 -14 77 0 93 13 15 16 49 16 214
0 186 -1 198 -20 209 -18 12 -20 24 -20 139 0 95 -3 129 -14 138 -7 6 -61 21
-120 33 l-106 21 0 66 c0 39 -5 72 -12 79 -8 8 -56 12 -148 12 -92 0 -140 -4
-148 -12z m228 -91 c0 -22 -3 -23 -80 -23 -77 0 -80 1 -80 23 0 22 3 23 80 23
77 0 80 -1 80 -23z m76 -132 c84 -19 156 -35 159 -35 3 0 5 -40 5 -90 0 -65
-3 -90 -12 -90 -7 0 -69 18 -138 38 l-125 38 -3 47 -3 47 -39 0 -39 0 -3 -47
-3 -47 -125 -38 c-69 -20 -131 -38 -137 -38 -10 0 -13 24 -13 89 l0 89 93 21
c50 11 119 27 152 35 33 8 64 15 68 15 5 1 78 -15 163 -34z m17 -261 c84 -25
160 -48 170 -50 16 -5 17 -19 15 -157 l-3 -151 -177 -53 -178 -53 -177 53
-178 53 -3 151 -3 151 53 16 c29 8 103 31 163 50 61 18 123 34 138 35 16 1 97
-20 180 -45z m-330 -501 l157 -46 161 47 c90 27 165 44 169 40 5 -5 10 -29 12
-53 l3 -44 -172 -54 -173 -53 -172 53 -173 54 2 39 c3 45 9 64 20 64 4 0 79
-21 166 -47z m35 -210 l123 -36 123 36 c68 21 128 37 134 37 5 0 31 -25 57
-55 l47 -55 -362 0 -362 0 47 55 c26 30 53 55 59 55 6 0 66 -16 134 -37z"/>
<path d="M1215 1466 c-101 -44 -125 -178 -46 -257 65 -65 157 -65 222 0 124
124 -15 327 -176 257z m120 -91 c16 -15 25 -36 25 -55 0 -19 -9 -40 -25 -55
-15 -16 -36 -25 -55 -25 -19 0 -40 9 -55 25 -16 15 -25 36 -25 55 0 19 9 40
25 55 15 16 36 25 55 25 19 0 40 -9 55 -25z"/>
<path d="M720 480 l0 -40 80 0 80 0 0 40 0 40 -80 0 -80 0 0 -40z"/>
<path d="M960 480 l0 -40 80 0 80 0 0 40 0 40 -80 0 -80 0 0 -40z"/>
<path d="M1200 480 l0 -40 80 0 80 0 0 40 0 40 -80 0 -80 0 0 -40z"/>
<path d="M1440 480 l0 -40 80 0 80 0 0 40 0 40 -80 0 -80 0 0 -40z"/>
<path d="M1680 480 l0 -40 80 0 80 0 0 40 0 40 -80 0 -80 0 0 -40z"/>
</g>
</svg>
