<svg width="26" height="26" viewBox="0 0 26 26" fill="none" xmlns="http://www.w3.org/2000/svg">
<path d="M9.43555 16.8696C10.3944 15.9497 11.6717 15.436 13.0004 15.436C14.3291 15.436 15.6064 15.9497 16.5652 16.8696" stroke="#575252" stroke-width="2" stroke-linecap="round" stroke-linejoin="round"/>
<path d="M5.99219 13.4165C7.86643 11.5877 10.3813 10.564 13 10.564C15.6187 10.564 18.1336 11.5877 20.0078 13.4165" stroke="#575252" stroke-width="2" stroke-linecap="round" stroke-linejoin="round"/>
<path d="M2.54883 9.97355C5.33454 7.22834 9.08855 5.68945 12.9996 5.68945C16.9107 5.68945 20.6647 7.22834 23.4504 9.97355" stroke="#575252" stroke-width="2" stroke-linecap="round" stroke-linejoin="round"/>
<path d="M13 21.5312C13.6731 21.5312 14.2188 20.9856 14.2188 20.3125C14.2188 19.6394 13.6731 19.0938 13 19.0938C12.3269 19.0938 11.7812 19.6394 11.7812 20.3125C11.7812 20.9856 12.3269 21.5312 13 21.5312Z" fill="#575252"/>
</svg>
